<svg width="20" height="20" viewBox="0 0 20 20" fill="none" xmlns="http://www.w3.org/2000/svg">
<path d="M10.0001 18.0001C9.74384 18.0001 9.49679 17.9073 9.30425 17.7389C8.57709 17.1036 7.87603 16.5066 7.2575 15.98L7.25434 15.9773C5.44091 14.4333 3.87495 13.0999 2.78538 11.7864C1.5674 10.318 1.0001 8.92577 1.0001 7.40482C1.0001 5.9271 1.50725 4.56381 2.42805 3.56591C3.35982 2.5562 4.63836 2.0001 6.02854 2.0001C7.06757 2.0001 8.01912 2.3283 8.8567 2.9755C9.27939 3.30219 9.66254 3.70202 10.0001 4.16838C10.3378 3.70202 10.7208 3.30219 11.1436 2.9755C11.9812 2.3283 12.9328 2.0001 13.9718 2.0001C15.3618 2.0001 16.6405 2.5562 17.5723 3.56591C18.4931 4.56381 19.0001 5.9271 19.0001 7.40482C19.0001 8.92577 18.4329 10.318 17.215 11.7863C16.1254 13.0999 14.5596 14.4331 12.7464 15.977C12.1268 16.5044 11.4246 17.1024 10.6958 17.7391C10.5034 17.9073 10.2562 18.0001 10.0001 18.0001ZM6.02854 3.05357C4.93636 3.05357 3.93304 3.48907 3.20313 4.27993C2.46238 5.08273 2.05437 6.19246 2.05437 7.40482C2.05437 8.68401 2.53022 9.82804 3.59713 11.1142C4.62833 12.3575 6.16216 13.6634 7.9381 15.1756L7.9414 15.1783C8.56226 15.707 9.26607 16.3063 9.99859 16.9462C10.7355 16.305 11.4404 15.7048 12.0625 15.1753C13.8383 13.6631 15.372 12.3575 16.4032 11.1142C17.47 9.82804 17.9458 8.68401 17.9458 7.40482C17.9458 6.19246 17.5378 5.08273 16.7971 4.27993C16.0673 3.48907 15.0638 3.05357 13.9718 3.05357C13.1717 3.05357 12.4371 3.30768 11.7885 3.80876C11.2105 4.25551 10.8079 4.82025 10.5718 5.21541C10.4504 5.41861 10.2367 5.53991 10.0001 5.53991C9.76348 5.53991 9.5498 5.41861 9.4284 5.21541C9.19246 4.82025 8.78982 4.25551 8.21166 3.80876C7.56306 3.30768 6.82848 3.05357 6.02854 3.05357Z" fill="#3D3D3D"/>
<path fill-rule="evenodd" clip-rule="evenodd" d="M6.99518 16.282L6.99356 16.2806L6.97298 16.263C5.17763 14.7345 3.5895 13.3823 2.47751 12.0418C1.21556 10.5204 0.600098 9.04079 0.600098 7.40482C0.600098 5.83622 1.13884 4.37324 2.13407 3.29465C3.14257 2.20181 4.52818 1.6001 6.02854 1.6001C7.15787 1.6001 8.19508 1.95876 9.10127 2.65899C9.42466 2.90893 9.72493 3.19736 10.0001 3.52087C10.2753 3.19738 10.5755 2.90895 10.8991 2.65897C11.8053 1.95875 12.8425 1.6001 13.9718 1.6001C15.472 1.6001 16.8577 2.20179 17.8662 3.29463C18.8615 4.37324 19.4001 5.83625 19.4001 7.40482C19.4001 9.04077 18.7848 10.5203 17.5228 12.0416C16.4111 13.3819 14.8237 14.7336 13.0292 16.2616L13.0057 16.2815C12.386 16.809 11.6857 17.4054 10.9591 18.0403C10.6937 18.2723 10.3529 18.4001 10.0001 18.4001C9.64723 18.4001 9.30663 18.2724 9.04108 18.0401C8.31611 17.4067 7.61689 16.8113 6.9982 16.2846L6.99518 16.282ZM9.30425 17.7389C9.49679 17.9073 9.74384 18.0001 10.0001 18.0001C10.2562 18.0001 10.5034 17.9073 10.6958 17.7391C11.4246 17.1024 12.1268 16.5044 12.7464 15.977C14.5596 14.4331 16.1254 13.0999 17.215 11.7863C18.4329 10.318 19.0001 8.92577 19.0001 7.40482C19.0001 5.9271 18.4931 4.56381 17.5723 3.56591C16.6405 2.5562 15.3618 2.0001 13.9718 2.0001C12.9328 2.0001 11.9812 2.3283 11.1436 2.9755C10.8237 3.22265 10.5267 3.51166 10.2547 3.83967C10.1672 3.94523 10.0823 4.05484 10.0001 4.16838C9.91791 4.05483 9.83301 3.94522 9.7455 3.83965C9.47361 3.51165 9.17647 3.22265 8.8567 2.9755C8.01912 2.3283 7.06757 2.0001 6.02854 2.0001C4.63836 2.0001 3.35982 2.5562 2.42805 3.56591C1.50725 4.56381 1.0001 5.9271 1.0001 7.40482C1.0001 8.92577 1.5674 10.318 2.78538 11.7864C3.87495 13.0999 5.44091 14.4333 7.25434 15.9773L7.2575 15.98C7.87603 16.5066 8.57709 17.1036 9.30425 17.7389Z" fill="#3D3D3D"/>
</svg>
