<svg width="34" height="34" viewBox="0 0 34 34" fill="none" xmlns="http://www.w3.org/2000/svg">
<path d="M17 0C7.61033 0 0 7.61033 0 17C0 25.7926 6.67657 33.0262 15.2367 33.9078C14.7197 29.6518 14.9121 26.1693 15.5693 23.3079C15.2006 21.5325 14.363 18.9036 12.4635 17.0361C12.4635 17.0361 13.7138 18.9116 14.3911 21.4323C14.3911 21.4364 14.3951 21.4404 14.3951 21.4444C14.4672 21.7129 14.5314 21.9854 14.5875 22.2659C14.5995 22.33 14.6115 22.3942 14.6235 22.4623C14.6756 22.7508 14.7237 23.0394 14.7558 23.3359C5.14969 22.1577 3.10184 13.5375 3.32626 10.2874C13.5455 10.8524 15.6374 17.6733 15.942 21.9052C19.2883 10.9446 29.9203 10.3114 30.798 10.2874C31.1787 18.7112 24.9309 25.2796 17.4609 25.8527C17.509 25.6242 17.5651 25.3958 17.6212 25.1714C17.6372 25.1033 17.6572 25.0391 17.6773 24.971C17.7214 24.8107 17.7654 24.6504 17.8175 24.4901C17.8376 24.422 17.8616 24.3498 17.8817 24.2817C17.9378 24.1054 17.9979 23.9331 18.058 23.7567C18.074 23.7166 18.086 23.6766 18.1021 23.6365C18.1782 23.4281 18.2584 23.2277 18.3385 23.0273C18.3465 23.0113 18.3505 22.9913 18.3586 22.9753C18.3586 22.9753 18.3586 22.9753 18.3626 22.9753C20.2782 18.3425 23.8128 15.3088 23.8128 15.3088C16.8758 19.3164 15.7056 29.736 15.5212 33.9239C16.0101 33.9679 16.4991 34 17 34C26.3897 34 34 26.3897 34 17C34 7.61033 26.3897 0 17 0Z" fill="#46A358"/>
</svg>
