<svg width="19" height="14" viewBox="0 0 19 14" fill="none" xmlns="http://www.w3.org/2000/svg">
<path d="M13.2217 7.01917L6.99973 10.1302V3.90819L13.2217 7.01917Z" fill="#46A358" fill-opacity="0.6"/>
<path fill-rule="evenodd" clip-rule="evenodd" d="M0 7.01917C0 11.8412 0.388873 13.63 3.42208 13.8633C6.22196 14.0189 12.4439 14.0189 15.2438 13.8633C18.277 13.7078 18.6659 11.8412 18.6659 7.01917C18.6659 2.19715 18.277 0.408332 15.2438 0.175008C12.4439 -0.0583156 6.22196 -0.0583156 3.42208 0.175008C0.388873 0.408332 0 2.19715 0 7.01917ZM15.1408 1.41075L15.1487 1.41136C15.8002 1.46147 16.1842 1.58747 16.4235 1.73C16.6366 1.85699 16.8093 2.04042 16.9579 2.37709C17.1196 2.74333 17.2455 3.27742 17.3237 4.0701C17.4013 4.85611 17.4259 5.82179 17.4259 7.01917C17.4259 8.21637 17.4013 9.18738 17.3237 9.98003C17.2453 10.7798 17.119 11.3222 16.9563 11.6942C16.8062 12.0372 16.6342 12.2172 16.4297 12.3375C16.1998 12.4726 15.825 12.5919 15.1803 12.625L15.175 12.6252C12.4255 12.778 6.26523 12.7782 3.50448 12.626C2.86073 12.5752 2.48009 12.4499 2.24243 12.3083C2.02929 12.1813 1.8566 11.9979 1.70797 11.6612C1.5463 11.295 1.4204 10.7609 1.34216 9.96824C1.26457 9.18222 1.24 8.21654 1.24 7.01917C1.24 5.82179 1.26457 4.85611 1.34216 4.0701C1.4204 3.27742 1.5463 2.74333 1.70797 2.37709C1.8566 2.04042 2.02929 1.85699 2.24243 1.73C2.48165 1.58747 2.86573 1.46147 3.51718 1.41136L3.52506 1.41072C6.25641 1.18311 12.4095 1.18314 15.1408 1.41075Z" fill="#46A358" fill-opacity="0.6"/>
</svg>
