<svg width="150" height="35" viewBox="0 0 150 35" fill="none" xmlns="http://www.w3.org/2000/svg">
<g clip-path="url(#clip0_1_38)">
<path d="M17 0C7.61033 0 0 7.61033 0 17C0 25.7926 6.67657 33.0262 15.2367 33.9078C14.7197 29.6518 14.9121 26.1693 15.5693 23.3079C15.2006 21.5325 14.363 18.9036 12.4635 17.0361C12.4635 17.0361 13.7138 18.9116 14.3911 21.4323C14.3911 21.4364 14.3951 21.4404 14.3951 21.4444C14.4672 21.7129 14.5314 21.9854 14.5875 22.2659C14.5995 22.33 14.6115 22.3942 14.6235 22.4623C14.6756 22.7508 14.7237 23.0394 14.7558 23.3359C5.14969 22.1577 3.10184 13.5375 3.32626 10.2874C13.5455 10.8524 15.6374 17.6733 15.942 21.9052C19.2883 10.9446 29.9203 10.3114 30.798 10.2874C31.1787 18.7112 24.9309 25.2796 17.4609 25.8527C17.509 25.6242 17.5651 25.3958 17.6212 25.1714C17.6372 25.1033 17.6572 25.0391 17.6773 24.971C17.7214 24.8107 17.7654 24.6504 17.8175 24.4901C17.8376 24.422 17.8616 24.3498 17.8817 24.2817C17.9378 24.1054 17.9979 23.9331 18.058 23.7567C18.074 23.7166 18.086 23.6766 18.1021 23.6365C18.1782 23.4281 18.2584 23.2277 18.3385 23.0273C18.3465 23.0113 18.3505 22.9913 18.3586 22.9753C18.3586 22.9753 18.3586 22.9753 18.3626 22.9753C20.2782 18.3425 23.8128 15.3088 23.8128 15.3088C16.8758 19.3164 15.7056 29.736 15.5212 33.9239C16.0101 33.9679 16.4991 34 17 34C26.3897 34 34 26.3897 34 17C34 7.61033 26.3897 0 17 0Z" fill="#46A358"/>
<path d="M46.7038 10.7454C48.9719 10.7454 50.8235 11.7198 52.0243 13.4987L49.7764 15.4109C48.9719 14.287 47.9975 13.7048 46.6472 13.7048C44.5691 13.7048 43.2754 15.0713 43.2754 17.1534C43.2754 19.2719 44.6419 20.695 46.8372 20.695C48.0177 20.695 48.9557 20.2826 49.5541 19.5913V19.0091H46.6674V16.2357H52.7763V20.1331C52.1941 21.164 51.3693 21.9888 50.302 22.6235C49.2347 23.242 48.0339 23.5614 46.7038 23.5614C42.9924 23.618 39.9238 20.7314 39.9764 17.1534C39.9198 13.5957 42.9924 10.6888 46.7038 10.7454Z" fill="#46A358"/>
<path d="M61.9577 23.3315L59.1681 19.4907H57.8379V23.3315H54.6157V10.9683H59.4672C62.2204 10.9683 64.246 12.6542 64.246 15.2214C64.246 16.7375 63.5142 17.9948 62.2973 18.7428L65.5559 23.3315H61.9577ZM57.8339 16.6809H59.4834C60.3809 16.6809 60.9631 16.0987 60.9631 15.2214C60.9631 14.3441 60.3809 13.7781 59.4834 13.7781H57.8339V16.6809Z" fill="#46A358"/>
<path d="M66.8335 10.9683H75.4126V13.8711H70.0557V15.5772H73.8763V18.2738H70.0557V20.4287H75.639V23.3315H66.8335V10.9683Z" fill="#46A358"/>
<path d="M77.644 10.9683H86.223V13.8711H80.8662V15.5772H84.6867V18.2738H80.8662V20.4287H86.4494V23.3315H77.644V10.9683Z" fill="#46A358"/>
<path d="M99.4194 10.9681V23.5577H98.3884L91.6812 17.0567V23.3313H88.459V10.7417H89.4899L96.1971 17.1497V10.9681H99.4194Z" fill="#46A358"/>
<path d="M103.264 19.1349C103.996 20.1092 104.764 20.7278 106.017 20.7278C106.862 20.7278 107.291 20.4286 107.291 19.8262C107.291 19.2845 107.008 19.1147 106.034 18.6821L104.76 18.1201C102.718 17.2186 101.631 16.0583 101.631 14.3926C101.631 12.2013 103.43 10.7378 105.957 10.7378C107.998 10.7378 109.442 11.7121 110.19 13.2282L108.035 14.8777C107.436 13.9802 106.875 13.5678 105.993 13.5678C105.318 13.5678 104.889 13.8306 104.889 14.3562C104.889 14.805 105.152 15.0516 105.957 15.3669L107.38 15.9653C109.535 16.8668 110.545 17.9503 110.545 19.6928C110.545 22.0903 108.577 23.5538 106.009 23.5538C103.782 23.5538 101.983 22.4865 101.081 20.7804L103.264 19.1349Z" fill="#46A358"/>
<path d="M112.393 10.9683H115.615V15.4842H120.131V10.9683H123.353V23.3315H120.131V18.387H115.615V23.3315H112.393V10.9683Z" fill="#46A358"/>
<path d="M131.843 10.7417C135.442 10.6649 138.607 13.6081 138.53 17.1497C138.603 20.7277 135.442 23.6143 131.843 23.5577C128.229 23.6143 125.116 20.7277 125.193 17.1497C125.116 13.6081 128.229 10.6689 131.843 10.7417ZM131.86 13.7011C129.874 13.7011 128.488 15.108 128.488 17.1497C128.488 18.1806 128.807 19.0216 129.426 19.6603C130.044 20.2789 130.869 20.5983 131.86 20.5983C133.772 20.5983 135.231 19.2116 135.231 17.1497C135.235 15.108 133.772 13.7011 131.86 13.7011Z" fill="#46A358"/>
<path d="M140.374 10.9683H145.225C147.979 10.9683 150.004 12.6542 150.004 15.2214C150.004 17.7523 147.926 19.4907 145.225 19.4907H143.596V23.3315H140.374V10.9683ZM145.242 16.6809C146.139 16.6809 146.721 16.0987 146.721 15.2214C146.721 14.3441 146.139 13.7781 145.242 13.7781H143.592V16.6809H145.242Z" fill="#46A358"/>
</g>
<defs>
<clipPath id="clip0_1_38">
<rect width="150" height="34.2999" fill="white"/>
</clipPath>
</defs>
</svg>
